<?xml version="1.0" encoding="UTF-8"?>
<!DOCTYPE svg PUBLIC "-//W3C//DTD SVG 1.1//EN" "http://www.w3.org/Graphics/SVG/1.1/DTD/svg11.dtd">
<svg xmlns="http://www.w3.org/2000/svg" version="1.1" width="409px" height="40px" style="shape-rendering:geometricPrecision; text-rendering:geometricPrecision; image-rendering:optimizeQuality; fill-rule:evenodd; clip-rule:evenodd" xmlns:xlink="http://www.w3.org/1999/xlink">
<g><path style="opacity:0.849" fill="#fefffe" d="M 69.5,-0.5 C 74.1667,-0.5 78.8333,-0.5 83.5,-0.5C 92.303,3.07291 96.6363,9.73957 96.5,19.5C 96.0565,29.255 91.3899,35.9217 82.5,39.5C 77.5,39.5 72.5,39.5 67.5,39.5C 57.4633,33.7475 53.63,25.0809 56,13.5C 58.0166,6.31845 62.5166,1.65179 69.5,-0.5 Z M 73.5,2.5 C 77.2923,2.97949 80.459,4.64615 83,7.5C 87.5985,16.1949 87.5985,24.8616 83,33.5C 78.5403,37.1578 74.207,36.8245 70,32.5C 65.3734,25.0039 64.3734,17.0039 67,8.5C 68.4361,5.55813 70.6028,3.55813 73.5,2.5 Z"/></g>
<g><path style="opacity:0.803" fill="#fefffe" d="M 99.5,-0.5 C 102.167,-0.5 104.833,-0.5 107.5,-0.5C 109.893,0.210041 112.393,0.876708 115,1.5C 121,9.5 127,17.5 133,25.5C 133.667,18.8333 133.667,12.1667 133,5.5C 130.594,4.43525 128.427,3.10192 126.5,1.5C 132.128,0.50457 137.794,0.171237 143.5,0.5C 142.756,2.9859 141.256,4.9859 139,6.5C 138.5,17.495 138.333,28.495 138.5,39.5C 136.167,39.5 133.833,39.5 131.5,39.5C 124.883,30.3766 118.049,21.3766 111,12.5C 110.333,19.5 110.333,26.5 111,33.5C 112.444,35.1554 114.278,35.822 116.5,35.5C 116.5,36.8333 116.5,38.1667 116.5,39.5C 110.833,39.5 105.167,39.5 99.5,39.5C 99.5,38.1667 99.5,36.8333 99.5,35.5C 101.722,35.822 103.556,35.1554 105,33.5C 105.667,24.1667 105.667,14.8333 105,5.5C 103.556,3.84464 101.722,3.17798 99.5,3.5C 99.5,2.16667 99.5,0.833333 99.5,-0.5 Z"/></g>
<g><path style="opacity:0.813" fill="#fefffe" d="M 146.5,-0.5 C 151.5,-0.5 156.5,-0.5 161.5,-0.5C 166.305,0.487173 171.305,0.820506 176.5,0.5C 175.949,3.80673 175.616,7.14006 175.5,10.5C 172.344,10.4709 170.678,8.80426 170.5,5.5C 167.216,4.34305 163.882,4.17638 160.5,5C 159.167,9 159.167,13 160.5,17C 162.833,17.6667 165.167,17.6667 167.5,17C 169.107,15.951 169.773,14.451 169.5,12.5C 170.833,12.5 172.167,12.5 173.5,12.5C 173.5,17.1667 173.5,21.8333 173.5,26.5C 172.167,26.5 170.833,26.5 169.5,26.5C 169.703,24.6096 169.037,23.1096 167.5,22C 164.901,21.231 162.401,21.3977 160,22.5C 157.259,33.6815 161.425,37.3482 172.5,33.5C 173.711,31.5781 175.044,29.7448 176.5,28C 177.448,27.5172 178.448,27.3505 179.5,27.5C 179.538,32.0542 178.204,36.0542 175.5,39.5C 165.167,39.5 154.833,39.5 144.5,39.5C 144.5,38.1667 144.5,36.8333 144.5,35.5C 146.467,35.7394 148.301,35.4061 150,34.5C 150.667,24.5 150.667,14.5 150,4.5C 146.45,4.15799 145.283,2.49133 146.5,-0.5 Z"/></g>
<g><path style="opacity:0.83" fill="#fefffe" d="M 230.5,-0.5 C 232.5,-0.5 234.5,-0.5 236.5,-0.5C 244.167,0.833333 251.833,0.833333 259.5,-0.5C 261.833,-0.5 264.167,-0.5 266.5,-0.5C 266.167,3.5 265.833,7.5 265.5,11.5C 264.167,11.5 262.833,11.5 261.5,11.5C 261.757,4.96968 258.757,2.80301 252.5,5C 252.043,5.41395 251.709,5.91395 251.5,6.5C 252.307,15.786 252.807,25.1193 253,34.5C 254.699,35.4061 256.533,35.7394 258.5,35.5C 258.5,36.8333 258.5,38.1667 258.5,39.5C 251.167,39.5 243.833,39.5 236.5,39.5C 236.5,38.1667 236.5,36.8333 236.5,35.5C 240.162,36.3629 242.328,35.0296 243,31.5C 243.5,22.5062 243.666,13.5062 243.5,4.5C 240.813,4.33591 238.146,4.50258 235.5,5C 234.563,7.70653 233.23,10.2065 231.5,12.5C 230.914,12.2907 230.414,11.9574 230,11.5C 229.393,7.46308 229.56,3.46308 230.5,-0.5 Z"/></g>
<g><path style="opacity:0.823" fill="#fefffe" d="M 345.5,-0.5 C 351.5,-0.5 357.5,-0.5 363.5,-0.5C 367.298,0.483418 371.298,0.816751 375.5,0.5C 375.5,3.83333 375.5,7.16667 375.5,10.5C 374.167,10.5 372.833,10.5 371.5,10.5C 371.528,8.41764 370.861,6.5843 369.5,5C 366.183,4.50166 362.85,4.33499 359.5,4.5C 359.5,8.83333 359.5,13.1667 359.5,17.5C 362.187,17.6641 364.854,17.4974 367.5,17C 368.293,15.9148 368.96,14.7481 369.5,13.5C 370.365,12.4173 371.365,12.2506 372.5,13C 373.467,17.4014 373.8,21.9014 373.5,26.5C 372.022,26.762 370.689,26.4287 369.5,25.5C 367.572,21.831 364.572,20.6643 360.5,22C 359.374,25.7436 359.207,29.577 360,33.5C 363.744,34.626 367.577,34.7927 371.5,34C 372.956,32.2552 374.289,30.4219 375.5,28.5C 377.204,27.1771 378.537,27.5104 379.5,29.5C 378.355,32.9419 377.021,36.2752 375.5,39.5C 365.167,39.5 354.833,39.5 344.5,39.5C 344.167,38.1667 343.833,38.1667 343.5,39.5C 336.833,39.5 330.167,39.5 323.5,39.5C 323.5,38.1667 323.5,36.8333 323.5,35.5C 325.144,35.7135 326.644,35.3802 328,34.5C 328.667,27.1667 328.667,19.8333 328,12.5C 324.204,21.0854 320.704,29.7521 317.5,38.5C 315.833,38.5 314.167,38.5 312.5,38.5C 309.835,30.0073 306.668,21.674 303,13.5C 301.243,20.4159 301.076,27.4159 302.5,34.5C 304.071,35.3094 305.738,35.6427 307.5,35.5C 307.5,36.8333 307.5,38.1667 307.5,39.5C 301.833,39.5 296.167,39.5 290.5,39.5C 290.5,38.1667 290.5,36.8333 290.5,35.5C 292.722,35.822 294.556,35.1554 296,33.5C 296.773,25.3261 297.607,17.1595 298.5,9C 298.483,5.13937 296.483,3.30604 292.5,3.5C 292.5,2.5 292.5,1.5 292.5,0.5C 297.544,0.172521 302.544,0.505854 307.5,1.5C 310.743,8.98565 314.243,16.319 318,23.5C 321.773,16.2881 325.273,8.9548 328.5,1.5C 333.12,0.506709 337.786,0.173375 342.5,0.5C 342.5,1.5 342.5,2.5 342.5,3.5C 338.662,3.00715 336.662,4.67382 336.5,8.5C 337.242,16.8133 337.742,25.1467 338,33.5C 342,37.5 346,37.5 350,33.5C 350.667,23.8333 350.667,14.1667 350,4.5C 348.644,3.61983 347.144,3.28649 345.5,3.5C 345.5,2.16667 345.5,0.833333 345.5,-0.5 Z"/></g>
<g><path style="opacity:0.827" fill="#fefffe" d="M 390.5,-0.5 C 396.167,-0.5 401.833,-0.5 407.5,-0.5C 407.577,3.21481 407.244,6.88147 406.5,10.5C 405.325,10.719 404.325,10.3857 403.5,9.5C 402.516,4.32963 399.516,2.16297 394.5,3C 390.998,5.49615 390.665,8.32948 393.5,11.5C 398.823,14.8368 403.823,18.5035 408.5,22.5C 408.5,25.8333 408.5,29.1667 408.5,32.5C 406.451,35.5497 403.784,37.883 400.5,39.5C 395.833,39.5 391.167,39.5 386.5,39.5C 384.856,38.6836 383.69,37.3502 383,35.5C 382.502,32.5184 382.335,29.5184 382.5,26.5C 385.434,27.2894 387.268,29.2894 388,32.5C 391.814,37.0206 395.814,37.3539 400,33.5C 400.635,31.3646 400.301,29.3646 399,27.5C 395.029,25.0282 391.195,22.3615 387.5,19.5C 381.571,11.7412 382.571,5.07454 390.5,-0.5 Z"/></g>
<g><path style="opacity:0.842" fill="#fefffe" d="M 52.5,39.5 C 45.8333,39.5 39.1667,39.5 32.5,39.5C 32.5,38.1667 32.5,36.8333 32.5,35.5C 34.451,35.7733 35.951,35.1066 37,33.5C 37.6667,26.5 37.6667,19.5 37,12.5C 33.3333,20.8333 29.6667,29.1667 26,37.5C 23.9783,38.9909 22.3117,38.6576 21,36.5C 18.057,28.3378 14.7237,20.3378 11,12.5C 10.3333,19.8333 10.3333,27.1667 11,34.5C 12.3988,35.2266 13.8988,35.7266 15.5,36C 16.3366,37.0113 16.67,38.1779 16.5,39.5C 10.8333,39.5 5.16667,39.5 -0.5,39.5C -0.5,38.1667 -0.5,36.8333 -0.5,35.5C 2.23848,36.0352 4.07182,35.0352 5,32.5C 5.66854,24.1426 6.50188,15.8093 7.5,7.5C 6.58792,4.7003 4.58792,3.36697 1.5,3.5C 1.5,2.5 1.5,1.5 1.5,0.5C 6.54396,0.172521 11.544,0.505854 16.5,1.5C 19.7434,8.98565 23.2434,16.319 27,23.5C 30.3715,15.9245 33.8715,8.42448 37.5,1C 42.1548,0.500847 46.8215,0.334181 51.5,0.5C 51.5,1.5 51.5,2.5 51.5,3.5C 49.2776,3.17798 47.4443,3.84464 46,5.5C 45.6228,15.1804 45.9561,24.8471 47,34.5C 48.6995,35.4061 50.5328,35.7394 52.5,35.5C 52.5,36.8333 52.5,38.1667 52.5,39.5 Z"/></g>
<g><path style="opacity:0.829" fill="#fefffe" d="M 208.5,39.5 C 201.833,39.5 195.167,39.5 188.5,39.5C 187.262,36.216 188.595,34.716 192.5,35C 194.891,30.6559 195.058,26.1559 193,21.5C 190.38,15.0864 186.88,9.25305 182.5,4C 181.207,3.50999 179.873,3.34332 178.5,3.5C 178.5,2.5 178.5,1.5 178.5,0.5C 184.509,0.333847 190.509,0.500513 196.5,1C 196.833,1.33333 197.167,1.66667 197.5,2C 196.5,2.83333 195.5,3.66667 194.5,4.5C 196.667,8.83333 198.833,13.1667 201,17.5C 203.039,13.2547 205.206,9.08804 207.5,5C 205.975,3.99136 204.308,3.49136 202.5,3.5C 202.5,2.5 202.5,1.5 202.5,0.5C 207.833,0.5 213.167,0.5 218.5,0.5C 218.5,1.5 218.5,2.5 218.5,3.5C 215.901,3.54937 213.734,4.54937 212,6.5C 208.73,12.0399 205.73,17.7065 203,23.5C 202.044,27.572 202.544,31.4054 204.5,35C 205.793,35.49 207.127,35.6567 208.5,35.5C 208.5,36.8333 208.5,38.1667 208.5,39.5 Z"/></g>
<g><path style="opacity:0.856" fill="#fefffe" d="M 288.5,39.5 C 282.167,39.5 275.833,39.5 269.5,39.5C 269.5,38.1667 269.5,36.8333 269.5,35.5C 271.144,35.7135 272.644,35.3802 274,34.5C 274.832,24.4834 274.666,14.4834 273.5,4.5C 272.264,3.75415 270.93,3.42082 269.5,3.5C 269.5,2.5 269.5,1.5 269.5,0.5C 275.833,0.5 282.167,0.5 288.5,0.5C 288.5,1.5 288.5,2.5 288.5,3.5C 286.856,3.28649 285.356,3.61983 284,4.5C 283.333,14.5 283.333,24.5 284,34.5C 285.667,35.1667 287.333,35.8333 289,36.5C 289.47,37.5768 289.303,38.5768 288.5,39.5 Z"/></g>
</svg>
