<?xml version="1.0" encoding="UTF-8"?>
<!DOCTYPE svg PUBLIC "-//W3C//DTD SVG 1.1//EN" "http://www.w3.org/Graphics/SVG/1.1/DTD/svg11.dtd">
<svg xmlns="http://www.w3.org/2000/svg" version="1.1" width="80px" height="63px" style="shape-rendering:geometricPrecision; text-rendering:geometricPrecision; image-rendering:optimizeQuality; fill-rule:evenodd; clip-rule:evenodd" xmlns:xlink="http://www.w3.org/1999/xlink">
<g><path style="opacity:1" fill="#102d49" d="M -0.5,-0.5 C 17.8333,-0.5 36.1667,-0.5 54.5,-0.5C 54.7847,3.03785 53.118,4.87118 49.5,5C 50.365,6.35884 51.365,7.52551 52.5,8.5C 48.4421,18.2831 44.1087,27.9498 39.5,37.5C 33.4662,25.9294 27.7995,14.096 22.5,2C 15.8333,1.33333 9.16667,1.33333 2.5,2C 1.16667,3 1.16667,4 2.5,5C 8.44437,4.60633 11.111,7.273 10.5,13C 9.78262,25.21 8.61596,37.3767 7,49.5C 5.58275,52.6663 3.08275,54.3329 -0.5,54.5C -0.5,36.1667 -0.5,17.8333 -0.5,-0.5 Z"/></g>
<g><path style="opacity:1" fill="#f0f2f4" d="M 52.5,8.5 C 53.8333,6.5 55.1667,4.5 56.5,2.5C 62.9262,1.88 68.9262,2.54666 74.5,4.5C 72.2121,5.07352 70.0454,6.07352 68,7.5C 67.3333,21.8333 67.3333,36.1667 68,50.5C 70.1413,53.3208 72.9746,54.6541 76.5,54.5C 76.5,55.8333 76.5,57.1667 76.5,58.5C 67.1667,58.5 57.8333,58.5 48.5,58.5C 48.3433,57.1266 48.51,55.7932 49,54.5C 50.9483,53.8906 52.7816,53.224 54.5,52.5C 55.6597,40.6738 55.8263,28.6738 55,16.5C 53.9614,17.2438 53.4614,18.2438 53.5,19.5C 47.5011,31.5072 42.0011,43.8405 37,56.5C 35.6439,57.3802 34.1439,57.7135 32.5,57.5C 28.1281,43.7043 22.7948,30.3709 16.5,17.5C 16.44,16.9569 16.1067,16.6236 15.5,16.5C 14.5046,22.1278 14.1712,27.7945 14.5,33.5C 14.3338,39.8421 14.5005,46.1754 15,52.5C 17.6212,53.9915 20.4545,54.6582 23.5,54.5C 23.67,55.8221 23.3366,56.9887 22.5,58C 14.8406,58.4997 7.1739,58.6664 -0.5,58.5C -0.5,57.1667 -0.5,55.8333 -0.5,54.5C 3.08275,54.3329 5.58275,52.6663 7,49.5C 8.61596,37.3767 9.78262,25.21 10.5,13C 11.111,7.273 8.44437,4.60633 2.5,5C 1.16667,4 1.16667,3 2.5,2C 9.16667,1.33333 15.8333,1.33333 22.5,2C 27.7995,14.096 33.4662,25.9294 39.5,37.5C 44.1087,27.9498 48.4421,18.2831 52.5,8.5 Z"/></g>
<g><path style="opacity:1" fill="#41576e" d="M 54.5,52.5 C 54.8279,41.3206 54.4946,30.3206 53.5,19.5C 53.4614,18.2438 53.9614,17.2438 55,16.5C 55.8263,28.6738 55.6597,40.6738 54.5,52.5 Z"/></g>
<g><path style="opacity:1" fill="#132f4b" d="M 54.5,-0.5 C 62.8333,-0.5 71.1667,-0.5 79.5,-0.5C 79.5,20.5 79.5,41.5 79.5,62.5C 52.8333,62.5 26.1667,62.5 -0.5,62.5C -0.5,61.1667 -0.5,59.8333 -0.5,58.5C 7.1739,58.6664 14.8406,58.4997 22.5,58C 23.3366,56.9887 23.67,55.8221 23.5,54.5C 20.4545,54.6582 17.6212,53.9915 15,52.5C 14.5005,46.1754 14.3338,39.8421 14.5,33.5C 15.1667,28.1667 15.8333,22.8333 16.5,17.5C 22.7948,30.3709 28.1281,43.7043 32.5,57.5C 34.1439,57.7135 35.6439,57.3802 37,56.5C 42.0011,43.8405 47.5011,31.5072 53.5,19.5C 54.4946,30.3206 54.8279,41.3206 54.5,52.5C 52.7816,53.224 50.9483,53.8906 49,54.5C 48.51,55.7932 48.3433,57.1266 48.5,58.5C 57.8333,58.5 67.1667,58.5 76.5,58.5C 76.5,57.1667 76.5,55.8333 76.5,54.5C 72.9746,54.6541 70.1413,53.3208 68,50.5C 67.3333,36.1667 67.3333,21.8333 68,7.5C 70.0454,6.07352 72.2121,5.07352 74.5,4.5C 75.404,3.79105 75.7373,2.79105 75.5,1.5C 68.9779,1.1765 62.6446,1.50984 56.5,2.5C 55.1667,4.5 53.8333,6.5 52.5,8.5C 51.365,7.52551 50.365,6.35884 49.5,5C 53.118,4.87118 54.7847,3.03785 54.5,-0.5 Z"/></g>
<g><path style="opacity:1" fill="#8997a5" d="M 56.5,2.5 C 62.6446,1.50984 68.9779,1.1765 75.5,1.5C 75.7373,2.79105 75.404,3.79105 74.5,4.5C 68.9262,2.54666 62.9262,1.88 56.5,2.5 Z"/></g>
<g><path style="opacity:1" fill="#607285" d="M 16.5,17.5 C 15.8333,22.8333 15.1667,28.1667 14.5,33.5C 14.1712,27.7945 14.5046,22.1278 15.5,16.5C 16.1067,16.6236 16.44,16.9569 16.5,17.5 Z"/></g>
</svg>
