<?xml version="1.0" encoding="UTF-8"?>
<!DOCTYPE svg PUBLIC "-//W3C//DTD SVG 1.1//EN" "http://www.w3.org/Graphics/SVG/1.1/DTD/svg11.dtd">
<svg xmlns="http://www.w3.org/2000/svg" version="1.1" width="673px" height="65px" style="shape-rendering:geometricPrecision; text-rendering:geometricPrecision; image-rendering:optimizeQuality; fill-rule:evenodd; clip-rule:evenodd" xmlns:xlink="http://www.w3.org/1999/xlink">
<g><path style="opacity:0.898" fill="#fefffe" d="M 117.5,-0.5 C 123.5,-0.5 129.5,-0.5 135.5,-0.5C 151.004,4.5411 158.671,15.3744 158.5,32C 157.925,48.3973 149.925,59.2307 134.5,64.5C 127.833,64.5 121.167,64.5 114.5,64.5C 95.306,56.5201 88.1394,42.1868 93,21.5C 97.2862,9.70759 105.453,2.37425 117.5,-0.5 Z M 120.5,4.5 C 131.367,5.19286 138.2,10.8595 141,21.5C 144.487,32.0664 143.82,42.3997 139,52.5C 129.818,61.8987 121.152,61.2321 113,50.5C 106.985,38.5939 105.985,26.2606 110,13.5C 112.489,9.1675 115.989,6.1675 120.5,4.5 Z"/></g>
<g><path style="opacity:0.885" fill="#fefffe" d="M 379.5,-0.5 C 381.167,-0.5 382.833,-0.5 384.5,-0.5C 402.167,0.833333 419.833,0.833333 437.5,-0.5C 437.833,-0.5 438.167,-0.5 438.5,-0.5C 437.998,6.18466 437.331,12.8513 436.5,19.5C 434.712,19.7852 433.045,19.4519 431.5,18.5C 430.752,15.0954 429.752,11.7621 428.5,8.5C 424.006,6.8759 419.506,6.54256 415,7.5C 414.333,22.5 414.333,37.5 415,52.5C 415.273,54.1012 415.773,55.6012 416.5,57C 419.308,57.9932 422.141,58.8266 425,59.5C 425.684,60.7839 425.517,61.9505 424.5,63C 412.838,63.4999 401.171,63.6665 389.5,63.5C 389.286,61.8561 389.62,60.3561 390.5,59C 394.159,59.0372 397.326,57.8705 400,55.5C 400.667,39.5 400.667,23.5 400,7.5C 397.376,7.53034 394.709,7.197 392,6.5C 390.933,7.19055 389.766,7.69055 388.5,8C 386.041,11.1777 384.041,14.6777 382.5,18.5C 379.526,20.178 377.859,19.3447 377.5,16C 378.455,10.5291 379.121,5.02911 379.5,-0.5 Z"/></g>
<g><path style="opacity:0.878" fill="#fefffe" d="M 645.5,-0.5 C 652.167,-0.5 658.833,-0.5 665.5,-0.5C 666.919,0.451145 668.585,0.784479 670.5,0.5C 670.49,5.91508 669.823,11.2484 668.5,16.5C 667.833,16.8333 667.167,17.1667 666.5,17.5C 664.263,14.9503 662.763,11.9503 662,8.5C 656.717,2.97625 651.384,2.64291 646,7.5C 643.219,13.0438 644.386,17.5438 649.5,21C 656.002,24.75 662.335,28.75 668.5,33C 670.125,35.0948 671.458,37.2615 672.5,39.5C 672.5,43.5 672.5,47.5 672.5,51.5C 669.348,57.9175 664.348,62.2508 657.5,64.5C 651.167,64.5 644.833,64.5 638.5,64.5C 636.18,63.5815 634.013,62.2482 632,60.5C 630.299,54.9629 629.466,49.2963 629.5,43.5C 631.167,43.5 632.833,43.5 634.5,43.5C 636.713,54.5577 643.38,59.7244 654.5,59C 659.535,55.9867 660.702,51.8201 658,46.5C 652.277,41.3887 646.11,36.8887 639.5,33C 629.75,23.9304 629.083,14.2638 637.5,4C 640.099,2.20496 642.766,0.704964 645.5,-0.5 Z"/></g>
<g><path style="opacity:0.891" fill="#fefffe" d="M -0.5,63.5 C -0.5,62.1667 -0.5,60.8333 -0.5,59.5C 2.71094,58.9874 5.54427,57.6541 8,55.5C 9.88916,41.5549 11.3892,27.5549 12.5,13.5C 12.4604,11.5711 12.1271,9.73781 11.5,8C 8.62492,6.69803 5.62492,5.8647 2.5,5.5C 2.5,3.83333 2.5,2.16667 2.5,0.5C 10.5,0.5 18.5,0.5 26.5,0.5C 32.0401,13.9182 37.8735,27.2515 44,40.5C 50.3559,27.7703 56.5225,14.9369 62.5,2C 69.8258,1.50034 77.1591,1.33368 84.5,1.5C 84.5,2.83333 84.5,4.16667 84.5,5.5C 81.7623,5.85109 79.0956,6.51776 76.5,7.5C 75.1544,23.519 75.321,39.519 77,55.5C 79.3046,57.9305 82.1379,58.9305 85.5,58.5C 85.9662,60.2012 85.9662,61.7012 85.5,63C 74.8385,63.4998 64.1719,63.6665 53.5,63.5C 53.2865,61.8561 53.6198,60.3561 54.5,59C 57.0075,58.9071 59.1741,58.0738 61,56.5C 61.6667,44.1667 61.6667,31.8333 61,19.5C 55.1081,33.6174 48.9415,47.6174 42.5,61.5C 40.8778,63.4386 39.0445,63.772 37,62.5C 30.7241,48.2816 24.7241,33.9482 19,19.5C 17.4753,31.0798 16.8086,42.7465 17,54.5C 17.3742,55.4162 17.8742,56.2496 18.5,57C 21.7204,57.7163 24.7204,58.883 27.5,60.5C 27.1667,61.1667 26.8333,61.8333 26.5,62.5C 17.5246,63.4982 8.52461,63.8315 -0.5,63.5 Z"/></g>
<g><path style="opacity:0.88" fill="#fefffe" d="M 164.5,0.5 C 171.841,0.333677 179.174,0.500344 186.5,1C 198,15.1667 209.5,29.3333 221,43.5C 220.907,32.1792 220.574,20.8459 220,9.5C 217.15,6.73464 213.65,5.40131 209.5,5.5C 209.5,3.83333 209.5,2.16667 209.5,0.5C 218.5,0.5 227.5,0.5 236.5,0.5C 236.5,2.16667 236.5,3.83333 236.5,5.5C 233.154,5.43498 230.654,6.76831 229,9.5C 227.671,27.4724 227.171,45.4724 227.5,63.5C 223.818,63.6653 220.152,63.4986 216.5,63C 205,48.1667 193.5,33.3333 182,18.5C 181.333,30.5 181.333,42.5 182,54.5C 182.374,55.4162 182.874,56.2496 183.5,57C 186.19,57.7709 188.856,58.6042 191.5,59.5C 192.711,60.7202 192.711,61.8869 191.5,63C 182.506,63.4998 173.506,63.6664 164.5,63.5C 164.286,61.8561 164.62,60.3561 165.5,59C 168.458,58.7707 170.958,57.604 173,55.5C 174.566,40.207 174.899,24.8737 174,9.5C 171.516,6.72242 168.349,5.38909 164.5,5.5C 164.5,3.83333 164.5,2.16667 164.5,0.5 Z"/></g>
<g><path style="opacity:0.877" fill="#fefffe" d="M 240.5,0.5 C 257.167,0.5 273.833,0.5 290.5,0.5C 289.833,6.16667 289.167,11.8333 288.5,17.5C 286.833,17.5 285.167,17.5 283.5,17.5C 283.794,13.885 282.794,10.7184 280.5,8C 275.225,6.64147 269.891,6.30813 264.5,7C 263.52,14.0787 263.187,21.2454 263.5,28.5C 268.179,28.6658 272.845,28.4992 277.5,28C 279.017,25.7955 280.35,23.4622 281.5,21C 282.549,20.5078 283.549,20.6744 284.5,21.5C 285.497,28.4684 285.83,35.4684 285.5,42.5C 283.801,42.6602 282.134,42.4935 280.5,42C 279.891,39.4896 278.558,37.4896 276.5,36C 272.179,35.501 267.846,35.3343 263.5,35.5C 263.188,42.4222 263.521,49.2555 264.5,56C 270.833,56.6667 277.167,56.6667 283.5,56C 286.223,52.9432 288.556,49.6099 290.5,46C 292.134,45.5065 293.801,45.3398 295.5,45.5C 294.843,51.6301 293.176,57.4634 290.5,63C 273.167,63.6667 255.833,63.6667 238.5,63C 237.289,61.8869 237.289,60.7202 238.5,59.5C 241.775,58.7631 244.942,57.7631 248,56.5C 249.52,40.1491 249.52,23.8158 248,7.5C 246.055,6.13672 243.888,5.30339 241.5,5C 240.62,3.64387 240.286,2.14387 240.5,0.5 Z"/></g>
<g><path style="opacity:0.87" fill="#fefffe" d="M 294.5,0.5 C 304.172,0.333531 313.839,0.500198 323.5,1C 324.517,2.04946 324.684,3.21613 324,4.5C 322.581,5.46014 321.081,6.29347 319.5,7C 323.461,14.4219 327.294,21.9219 331,29.5C 334.38,22.5728 337.88,15.7395 341.5,9C 339.906,6.61944 337.573,5.45277 334.5,5.5C 334.5,3.83333 334.5,2.16667 334.5,0.5C 342.833,0.5 351.167,0.5 359.5,0.5C 359.5,2.16667 359.5,3.83333 359.5,5.5C 355.306,5.73027 351.806,7.39694 349,10.5C 344.333,18.5 339.667,26.5 335,34.5C 332.843,42.1094 333.01,49.6094 335.5,57C 337.98,57.96 340.48,58.7934 343,59.5C 343.49,60.7932 343.657,62.1266 343.5,63.5C 332.252,63.8207 321.085,63.4874 310,62.5C 309.251,61.365 309.417,60.365 310.5,59.5C 313.508,58.9346 316.341,57.9346 319,56.5C 320.919,50.1748 320.919,43.8415 319,37.5C 315.209,28.5856 310.876,19.919 306,11.5C 303.295,7.32161 299.462,5.32161 294.5,5.5C 294.5,3.83333 294.5,2.16667 294.5,0.5 Z"/></g>
<g><path style="opacity:0.905" fill="#fefffe" d="M 444.5,0.5 C 454.5,0.5 464.5,0.5 474.5,0.5C 474.5,2.16667 474.5,3.83333 474.5,5.5C 471.801,5.46612 469.301,6.13279 467,7.5C 466.333,23.5 466.333,39.5 467,55.5C 468.844,57.8859 471.344,59.0526 474.5,59C 475.38,60.3561 475.714,61.8561 475.5,63.5C 464.833,63.5 454.167,63.5 443.5,63.5C 443.343,62.1266 443.51,60.7932 444,59.5C 446.124,58.7728 448.291,58.1062 450.5,57.5C 451.251,56.624 451.751,55.624 452,54.5C 452.667,39.5 452.667,24.5 452,9.5C 451.626,8.58377 451.126,7.75044 450.5,7C 448.238,6.35812 446.071,5.52479 444,4.5C 443.421,3.07153 443.588,1.7382 444.5,0.5 Z"/></g>
<g><path style="opacity:0.885" fill="#fefffe" d="M 481.5,0.5 C 489.528,0.16897 497.528,0.502304 505.5,1.5C 510.97,14.4396 516.97,27.1063 523.5,39.5C 529.53,28.1058 535.03,16.4391 540,4.5C 541.779,2.23646 544.113,0.903125 547,0.5C 552.45,1.42995 557.95,1.76328 563.5,1.5C 563.5,2.83333 563.5,4.16667 563.5,5.5C 560.253,5.41521 557.419,6.41521 555,8.5C 554.494,24.1793 554.828,39.846 556,55.5C 558.344,57.7744 561.178,58.9411 564.5,59C 565.833,60.3333 565.833,61.6667 564.5,63C 553.923,63.8191 543.423,63.6524 533,62.5C 532.316,61.2161 532.483,60.0495 533.5,59C 536.007,58.9071 538.174,58.0738 540,56.5C 540.667,44.5 540.667,32.5 540,20.5C 533.612,34.7723 527.112,48.939 520.5,63C 519.167,63.6667 517.833,63.6667 516.5,63C 509.948,48.6806 503.781,34.1806 498,19.5C 496.577,31.1318 495.911,42.7985 496,54.5C 496.374,55.4162 496.874,56.2496 497.5,57C 500.19,57.7709 502.856,58.6042 505.5,59.5C 506.711,60.7202 506.711,61.8869 505.5,63C 496.506,63.4998 487.506,63.6664 478.5,63.5C 478.102,59.2411 480.102,57.4078 484.5,58C 486.487,56.6811 487.654,54.8477 488,52.5C 489.332,40.0152 490.498,27.5152 491.5,15C 491.47,12.5759 491.137,10.2426 490.5,8C 487.625,6.69803 484.625,5.8647 481.5,5.5C 481.5,3.83333 481.5,2.16667 481.5,0.5 Z"/></g>
<g><path style="opacity:0.891" fill="#fefffe" d="M 568.5,0.5 C 585.167,0.5 601.833,0.5 618.5,0.5C 618.192,6.08618 617.526,11.5862 616.5,17C 614.888,17.7203 613.388,17.5536 612,16.5C 611.302,8.32418 606.802,4.99085 598.5,6.5C 596.241,6.5323 594.075,6.86563 592,7.5C 591.5,14.4921 591.334,21.4921 591.5,28.5C 596.179,28.6658 600.845,28.4992 605.5,28C 607.41,26.2994 608.577,24.1327 609,21.5C 612.526,20.1679 614.359,21.5012 614.5,25.5C 613.645,31.1342 613.312,36.8008 613.5,42.5C 611.712,42.7852 610.045,42.4519 608.5,41.5C 607.966,39.3855 606.966,37.5522 605.5,36C 601.167,35.3333 596.833,35.3333 592.5,36C 591.167,42.6667 591.167,49.3333 592.5,56C 596.887,56.226 601.221,56.726 605.5,57.5C 611.921,56.4199 616.255,52.7532 618.5,46.5C 620.045,45.5481 621.712,45.2148 623.5,45.5C 623.136,51.7526 621.469,57.586 618.5,63C 601.17,63.4999 583.837,63.6666 566.5,63.5C 566.286,61.8561 566.62,60.3561 567.5,59C 569.5,58.6667 571.5,58.3333 573.5,58C 575.333,57.5 576.5,56.3333 577,54.5C 577.667,39.1667 577.667,23.8333 577,8.5C 575.156,6.11405 572.656,4.94739 569.5,5C 568.62,3.64387 568.286,2.14387 568.5,0.5 Z"/></g>
</svg>
